<?xml version="1.0" encoding="UTF-8"?>
<svg id="Layer_2" data-name="Layer 2" xmlns="http://www.w3.org/2000/svg" viewBox="0 0 950.77 891.39">
  <defs>
    <style>
      .cls-1 {
        fill: #fde919;
      }
    </style>
  </defs>
  <g id="Layer_1-2" data-name="Layer 1">
    <g>
      <path class="cls-1" d="M425.09,595.83c-21.81,35.89,21.12,70.85,53.96,69.06,23.13-1.26,66.29-34.23,46.71-65.4-19.04-30.3-84.71-29.93-100.67-3.66Z"/>
      <path class="cls-1" d="M945.72,546.83c-22.46-116.9-118.23-175.18-137.78-279.98,42.91-39.12,75.35-85.89,77.51-143.01,2.66-70.55-52.16-131.51-121.89-123.05-54.26,6.58-86.43,49.6-107.75,100.93-118.06-60.34-244.59-62.13-357.89-1.78-18.82-29.42-34.57-51.15-55.77-70.96C195.23-14.88,127.21-7.21,88.61,43.9c-54.82,72.57-17.76,161.53,57.39,220.49-17.43,107.13-113.72,146.21-140.85,283.25-22.61,114.23,30.38,223.7,136.14,272.23,203.62,93.44,435.64,92.87,643.59,12.62,119.43-46.09,185.26-158.56,160.83-285.66ZM743.98,79.37c12.5-13.11,32.7-11.8,47.3-6.56,14,5.03,28.8,17.8,31.31,36.76,5.62,42.47-15.08,82.48-52.95,105.67l-75.23-83.88,49.58-51.98ZM602.32,339.7c9.37-9.81,21.69-13.5,32.39-11.62,30.83,5.43,46.09,61.45,21.3,103.88-11.95,20.46-41.8,21.06-55.5,4.75-23.87-28.44-23.14-70.89,1.81-97.02ZM296.72,342.92c7.54-10.1,20.04-15.18,30-14.88,37.37,1.13,51.29,69.57,23.44,107.04-17.1,23.01-50.96,11.58-60.77-10.83-11.94-27.28-10.33-57.68,7.33-81.33ZM137.47,88.61c9.64-11.21,26.84-19.24,45.48-16.61,36.5,5.17,63.5,34.79,69.21,68.82l-75.52,75.59c-44.74-33.31-65.75-96.9-39.17-127.8ZM781.68,772.83c-197.74,85.98-426.81,84.84-622.7-6.17-55.12-25.61-92.95-81.64-100.22-136.23-8.05-60.48,23.7-114.75,82.99-129.83,57.12-14.53,114.53-.71,158.76,31.99,82.91,61.28,153.63-46.41,225.63-.29,101.95,65.31,141.35-41.21,245.61-40.42,39.51.3,74.4,17.28,95.15,42.09,62.68,74.95,10.67,197.16-85.22,238.86Z"/>
    </g>
  </g>
</svg>